<?xml version="1.0" encoding="UTF-8"?>
<svg version="1.1" xmlns="http://www.w3.org/2000/svg" width="661" height="377">
<path d="M0 0 C0.96178162 0.00215515 1.92356323 0.0043103 2.91448975 0.00653076 C26.88242752 0.09248365 49.0373731 3.30262461 72.25 9.3125 C73.60351562 9.65837158 73.60351562 9.65837158 74.984375 10.01123047 C92.95200928 14.69710782 109.43029394 22.38310994 125.5625 31.5 C126.40353271 31.97453613 127.24456543 32.44907227 128.11108398 32.93798828 C133.10748466 35.84093058 137.63227454 39.06635497 142.14428711 42.67211914 C144.54839208 44.54495176 147.03731093 46.19141677 149.61010742 47.81982422 C163.89838653 56.86834293 175.65488108 68.48518564 187.46166992 80.50927734 C188.27095947 81.33250488 189.08024902 82.15573242 189.9140625 83.00390625 C190.63029785 83.73810791 191.3465332 84.47230957 192.08447266 85.22875977 C194.36221317 87.42047513 196.77923104 89.34377703 199.25 91.3125 C200.77609692 93.02172855 202.2545277 94.77447752 203.6875 96.5625 C204.40808594 97.45453125 205.12867188 98.3465625 205.87109375 99.265625 C250.01847194 155.80906504 214.25 242.57581752 214.25 314.3125 C-3.88 314.3125 -222.01 314.3125 -446.75 314.3125 C-446.75 236.4325 -446.75 158.5525 -446.75 78.3125 C-443.19814748 79.0228705 -440.49788707 79.69526747 -437.21484375 80.984375 C-410.90847549 90.94857912 -382.7421881 94.75958404 -354.6875 94.625 C-353.88773743 94.62317719 -353.08797485 94.62135437 -352.26397705 94.61947632 C-338.24496204 94.56610134 -324.59736886 93.58902537 -310.75 91.3125 C-309.68201172 91.14621094 -308.61402344 90.97992188 -307.51367188 90.80859375 C-271.07691671 85.05878434 -236.86412373 72.01173159 -203.47509766 56.703125 C-197.46395463 53.95247719 -191.48324679 51.32787229 -185.25 49.125 C-179.19906833 46.95701914 -173.4715833 44.36345999 -167.6875 41.5625 C-130.79562953 23.70714428 -93.74863705 10.95536342 -53.3125 4.0625 C-52.00430298 3.83614868 -52.00430298 3.83614868 -50.66967773 3.60522461 C-33.8289439 0.86758357 -17.04189552 -0.06925643 0 0 Z " fill="#2292FE" transform="translate(446.75,62.6875)"/>
<path d="M0 0 C0.96178162 0.00215515 1.92356323 0.0043103 2.91448975 0.00653076 C26.88242752 0.09248365 49.0373731 3.30262461 72.25 9.3125 C73.60351562 9.65837158 73.60351562 9.65837158 74.984375 10.01123047 C92.95200928 14.69710782 109.43029394 22.38310994 125.5625 31.5 C126.40353271 31.97453613 127.24456543 32.44907227 128.11108398 32.93798828 C133.10748466 35.84093058 137.63227454 39.06635497 142.14428711 42.67211914 C144.54839208 44.54495176 147.03731093 46.19141677 149.61010742 47.81982422 C163.89838653 56.86834293 175.65488108 68.48518564 187.46166992 80.50927734 C188.27095947 81.33250488 189.08024902 82.15573242 189.9140625 83.00390625 C190.63029785 83.73810791 191.3465332 84.47230957 192.08447266 85.22875977 C194.36221317 87.42047513 196.77923104 89.34377703 199.25 91.3125 C201.62622947 93.97387701 203.82091546 96.73250432 206.0234375 99.5390625 C208.11041805 102.24544096 208.11041805 102.24544096 210.1640625 104.2109375 C214.6104871 108.86809312 214.69532752 113.13254804 214.625 119.3125 C214.54790472 121.98568893 214.41384001 124.64251472 214.25 127.3125 C213.363125 126.549375 212.47625 125.78625 211.5625 125 C210.59183594 124.17242187 210.59183594 124.17242187 209.6015625 123.328125 C207.8999995 121.86964243 206.20853385 120.39935203 204.5234375 118.921875 C189.61051075 105.94165579 173.44825378 95.03125357 156.25 85.3125 C155.41629883 84.84070313 154.58259766 84.36890625 153.72363281 83.8828125 C126.97179982 68.92079853 98.72308959 58.88135846 68.25 55.3125 C67.13078156 55.18089478 67.13078156 55.18089478 65.98895264 55.04663086 C59.8523112 54.3771733 53.79534811 54.15199495 47.625 54.14453125 C46.63862549 54.14120285 45.65225098 54.13787445 44.63598633 54.13444519 C42.55859844 54.12941324 40.48120257 54.1270357 38.40380859 54.12719727 C35.28599087 54.12502507 32.16853596 54.10686826 29.05078125 54.08789062 C10.74838604 54.03290114 -6.42361982 55.86389122 -24.25 59.9375 C-25.40373611 60.19628433 -25.40373611 60.19628433 -26.58078003 60.46029663 C-39.95048553 63.46723559 -52.98167471 67.18589689 -66.0078125 71.45288086 C-68.85420504 72.34516613 -71.7148946 73.13240082 -74.59765625 73.8984375 C-80.58302427 75.49947943 -86.09604377 77.79483501 -91.75 80.3125 C-92.72195313 80.74304688 -93.69390625 81.17359375 -94.6953125 81.6171875 C-108.70526173 87.95928728 -122.55082754 94.74331222 -135.70703125 102.71875 C-139.06106514 104.47541987 -142.0893443 105.39389129 -145.75 106.3125 C-145.75 106.9725 -145.75 107.6325 -145.75 108.3125 C-146.76449219 108.725 -147.77898437 109.1375 -148.82421875 109.5625 C-152.59057366 111.17975598 -156.0758238 113.16615273 -159.5625 115.3125 C-160.19124023 115.6933374 -160.81998047 116.0741748 -161.46777344 116.46655273 C-165.20230435 118.7335567 -168.91424504 121.03572435 -172.62109375 123.34765625 C-173.43280029 123.85103516 -174.24450684 124.35441406 -175.08081055 124.87304688 C-176.67331099 125.86175035 -178.26213753 126.85640009 -179.84692383 127.85742188 C-180.57290771 128.30794922 -181.2988916 128.75847656 -182.046875 129.22265625 C-182.68979492 129.62621338 -183.33271484 130.02977051 -183.99511719 130.44555664 C-185.75 131.3125 -185.75 131.3125 -188.75 131.3125 C-188.75 131.9725 -188.75 132.6325 -188.75 133.3125 C-191.234375 135.0390625 -191.234375 135.0390625 -194.5 136.9375 C-195.56734375 137.56914062 -196.6346875 138.20078125 -197.734375 138.8515625 C-200.75 140.3125 -200.75 140.3125 -204.75 140.3125 C-204.75 140.9725 -204.75 141.6325 -204.75 142.3125 C-209.13873314 144.89909634 -213.46684611 147.28730887 -218.25 149.0625 C-222.11363482 150.53942463 -225.67535181 152.30748231 -229.29174805 154.29370117 C-245.61895135 163.25806862 -262.86538496 169.86136923 -280.5 175.75 C-281.73645264 176.16306396 -282.97290527 176.57612793 -284.24682617 177.00170898 C-296.68475471 181.07091302 -308.76288037 183.79771217 -321.75 185.4375 C-323.02617187 185.60636719 -324.30234375 185.77523437 -325.6171875 185.94921875 C-338.59471859 187.63444007 -351.54931279 188.59752811 -364.625 189.0625 C-365.3425647 189.08818054 -366.06012939 189.11386108 -366.79943848 189.14031982 C-379.35955275 189.55229269 -391.38958432 188.72868176 -403.75 186.3125 C-404.76578125 186.11398438 -405.7815625 185.91546875 -406.828125 185.7109375 C-407.46234375 185.57945312 -408.0965625 185.44796875 -408.75 185.3125 C-408.75 184.6525 -408.75 183.9925 -408.75 183.3125 C-409.86632812 183.20550781 -410.98265625 183.09851563 -412.1328125 182.98828125 C-417.13635877 182.35981118 -421.81666376 180.98373622 -426.625 179.5 C-427.87603516 179.1277832 -427.87603516 179.1277832 -429.15234375 178.74804688 C-435.20940708 176.90845963 -440.82906753 174.68087299 -446.75 172.3125 C-446.75 141.2925 -446.75 110.2725 -446.75 78.3125 C-443.19814748 79.0228705 -440.49788707 79.69526747 -437.21484375 80.984375 C-410.90847549 90.94857912 -382.7421881 94.75958404 -354.6875 94.625 C-353.88773743 94.62317719 -353.08797485 94.62135437 -352.26397705 94.61947632 C-338.24496204 94.56610134 -324.59736886 93.58902537 -310.75 91.3125 C-309.68201172 91.14621094 -308.61402344 90.97992188 -307.51367188 90.80859375 C-271.07691671 85.05878434 -236.86412373 72.01173159 -203.47509766 56.703125 C-197.46395463 53.95247719 -191.48324679 51.32787229 -185.25 49.125 C-179.19906833 46.95701914 -173.4715833 44.36345999 -167.6875 41.5625 C-130.79562953 23.70714428 -93.74863705 10.95536342 -53.3125 4.0625 C-52.00430298 3.83614868 -52.00430298 3.83614868 -50.66967773 3.60522461 C-33.8289439 0.86758357 -17.04189552 -0.06925643 0 0 Z " fill="#11A9FE" transform="translate(446.75,62.6875)"/>
<path d="M0 0 C1.8125 0.0859375 1.8125 0.0859375 4 0.375 C4.721875 0.46523437 5.44375 0.55546875 6.1875 0.6484375 C8 1 8 1 9 2 C10.2375 1.979375 11.475 1.95875 12.75 1.9375 C16.82945243 1.87233303 20.60655453 2.36646441 24.625 3.0625 C29.43221795 3.87396287 33.17516503 3.78772816 38 3 C41.1875 3.875 41.1875 3.875 44 5 C44.70125 5.165 45.4025 5.33 46.125 5.5 C48.2579885 6.06879693 50.05862407 6.95997718 52 8 C52 7.34 52 6.68 52 6 C52.99 6 53.98 6 55 6 C55.45375 6.474375 55.9075 6.94875 56.375 7.4375 C58.46366683 9.44583349 60.1783448 9.61869524 63 10 C63 9.34 63 8.68 63 8 C64.98 8.495 64.98 8.495 67 9 C67 9.66 67 10.32 67 11 C68.65 10.67 70.3 10.34 72 10 C72 10.66 72 11.32 72 12 C74.18652739 12.33965474 76.37428025 12.67142477 78.5625 13 C79.78066406 13.185625 80.99882813 13.37125 82.25390625 13.5625 C85.87627848 13.98555077 89.35712046 14.07501425 93 14 C92.34 14.33 91.68 14.66 91 15 C91 15.66 91 16.32 91 17 C92.32 17 93.64 17 95 17 C95 17.99 95 18.98 95 20 C96.07314453 19.72349609 96.07314453 19.72349609 97.16796875 19.44140625 C100.22781608 18.96449211 102.3083481 19.2565589 105.3125 19.9375 C106.19550781 20.13214844 107.07851563 20.32679687 107.98828125 20.52734375 C108.65214844 20.68332031 109.31601562 20.83929688 110 21 C110 21.66 110 22.32 110 23 C111.19625 23.4125 112.3925 23.825 113.625 24.25 C118.28150403 26.00857333 122.69616435 27.86645075 125.375 32.25 C125.58125 32.8275 125.7875 33.405 126 34 C126.70125 33.938125 127.4025 33.87625 128.125 33.8125 C131.85171741 34.05554679 133.91911655 34.87761362 137 37 C138.72365839 41.12179181 139.27617978 43.76159271 138 48 C137.06039429 47.52542358 137.06039429 47.52542358 136.10180664 47.04125977 C87.24287975 22.53867412 36.56770552 12.13059247 -18 19 C-18.92296875 19.1129541 -19.8459375 19.2259082 -20.796875 19.34228516 C-60.99653466 24.47021305 -98.59688218 37.38812108 -134.89038086 55.04510498 C-139.13231164 57.10773417 -143.39301601 59.12450035 -147.66920471 61.11509705 C-154.66697562 64.37515032 -161.51892225 67.7748612 -168.25 71.5625 C-185.42585455 81.06127973 -202.85000512 90.16495955 -220.5625 98.625 C-221.35148682 99.00221191 -222.14047363 99.37942383 -222.95336914 99.76806641 C-228.22768366 102.25213813 -233.57769918 104.51892539 -238.96704102 106.74121094 C-241.83784651 107.93270036 -244.69180473 109.15690321 -247.54296875 110.39453125 C-284.56690089 126.33969156 -323.32312663 136.19972436 -363.75 136.25 C-364.82400558 136.25250763 -364.82400558 136.25250763 -365.91970825 136.25506592 C-382.56386062 136.25737712 -398.70858905 134.4120202 -415 131 C-415 130.34 -415 129.68 -415 129 C-415.95003906 129.061875 -416.90007812 129.12375 -417.87890625 129.1875 C-422.85718006 129.1875 -427.26404159 127.57795858 -431.9375 126 C-432.81212891 125.71382813 -433.68675781 125.42765625 -434.58789062 125.1328125 C-436.7284596 124.43098661 -438.8654615 123.71991611 -441 123 C-441 122.34 -441 121.68 -441 121 C-441.99 121 -442.98 121 -444 121 C-444.02527124 114.75204325 -444.04283344 108.50409959 -444.05493164 102.25610352 C-444.05997298 100.12881986 -444.06680591 98.00153969 -444.07543945 95.87426758 C-444.08751379 92.82372174 -444.09323014 89.77322155 -444.09765625 86.72265625 C-444.10281754 85.76537125 -444.10797882 84.80808624 -444.11329651 83.8217926 C-444.11337204 82.94095505 -444.11344757 82.06011749 -444.11352539 81.15258789 C-444.115746 80.37315323 -444.11796661 79.59371857 -444.12025452 78.79066467 C-444 77 -444 77 -443 76 C-435.97946669 75.93523493 -430.02603474 77.52721002 -423.5546875 80.09375 C-421.24432244 80.91332904 -419.3631419 81.30516933 -416.9375 81.5 C-411.87866958 82.14239116 -407.64026946 83.95561899 -403 86 C-403 86.33 -403 86.66 -403 87 C-409.49090909 87.12727273 -409.49090909 87.12727273 -412.25 86.4375 C-415.88153745 85.85975541 -419.21634333 86.38345098 -422.8125 86.9375 C-423.50537109 87.03740234 -424.19824219 87.13730469 -424.91210938 87.24023438 C-426.60917213 87.48601588 -428.30475459 87.74198152 -430 88 C-422.38459684 89.5832711 -415.70185475 90.26092312 -408 89 C-408 89.66 -408 90.32 -408 91 C-408.99 91.495 -408.99 91.495 -410 92 C-409.08347656 91.83951172 -409.08347656 91.83951172 -408.1484375 91.67578125 C-401.30197885 90.7789916 -395.30031094 91.31294942 -388.5625 92.4375 C-377.80960707 94.17121095 -367.17403353 94.28462874 -356.3125 94.25 C-355.47824493 94.248862 -354.64398987 94.247724 -353.78445435 94.24655151 C-351.39392292 94.24022572 -349.00372295 94.22438826 -346.61328125 94.203125 C-345.88921082 94.19875931 -345.16514038 94.19439362 -344.41912842 94.18989563 C-341.34812638 94.14640845 -338.93604679 93.97868226 -336 93 C-334.33333333 93 -332.66666667 93 -331 93 C-330.01 92.67 -329.02 92.34 -328 92 C-326.96875 92.020625 -325.9375 92.04125 -324.875 92.0625 C-320.35552533 91.98960525 -316.36552611 91.08521553 -312 90 C-307.39900249 88.87531172 -307.39900249 88.87531172 -305 89.625 C-302.00883838 90.1858428 -300.53383271 88.54501994 -298 87 C-297.2265625 87.00773437 -296.453125 87.01546875 -295.65625 87.0234375 C-292.62293105 86.99667292 -290.70762891 86.26560081 -287.9375 85.0625 C-283.40463729 83.11385794 -279.15144938 82.01330955 -274.3125 81.125 C-270.17103493 80.30640881 -266.27609094 79.18602129 -262.296875 77.7890625 C-259.79985387 76.93124232 -257.28368614 76.17961517 -254.75 75.4375 C-250.67268704 74.22566705 -246.76711015 72.93877727 -243 70.9375 C-241 70 -241 70 -238.6875 69.5625 C-234.00792123 68.58305328 -229.96106518 66.64071012 -226 64 C-224.88625 63.896875 -223.7725 63.79375 -222.625 63.6875 C-218.84320761 63.32898123 -218.84320761 63.32898123 -216.5 60.4375 C-214 58 -214 58 -210.1875 57.6875 C-209.135625 57.790625 -208.08375 57.89375 -207 58 C-207 57.34 -207 56.68 -207 56 C-200.09211883 53.09141846 -194.56074481 50.8487851 -187 51 C-185.26637224 50.1010819 -183.53286829 49.19120134 -181.88671875 48.140625 C-179.80007562 46.87913475 -177.68301997 45.94785768 -175.4375 45 C-171.62019062 43.35280486 -168.3736592 41.4221143 -165 39 C-164.34 39.33 -163.68 39.66 -163 40 C-160.61437877 39.06446226 -158.32244753 38.07189886 -156 37 C-154.824375 36.505 -153.64875 36.01 -152.4375 35.5 C-150.19960332 34.52346327 -147.98780851 33.48398081 -145.8125 32.375 C-143.44219168 31.2161826 -141.53838934 30.57318469 -139 30 C-135.90604652 28.96868217 -133.93296086 27.94573022 -131.375 25.875 C-129 24 -129 24 -126 24 C-121.55068874 22.51438251 -117.24998502 20.76703626 -113.25 18.3125 C-110.48978597 16.70237515 -108.15470153 16.44165821 -105 16 C-102.66067594 15.35466922 -100.32671854 14.68939809 -98 14 C-96.66666667 13.66666667 -95.33333333 13.33333333 -94 13 C-92.29125182 12.52231481 -90.58295383 12.04301762 -88.875 11.5625 C-79.86544778 9.12266089 -71.34561117 7.74855647 -62.00390625 7.24609375 C-58.95126403 7.11581629 -58.95126403 7.11581629 -56 6 C-54.7625 6.2784375 -54.7625 6.2784375 -53.5 6.5625 C-50.7600266 7.33822518 -50.7600266 7.33822518 -48 5 C-45.87109375 4.4375 -45.87109375 4.4375 -43.4375 4 C-42.25994141 3.7834375 -42.25994141 3.7834375 -41.05859375 3.5625 C-40.04925781 3.376875 -39.03992188 3.19125 -38 3 C-37.31510498 2.83314697 -36.63020996 2.66629395 -35.92456055 2.49438477 C-28.56282713 0.78787303 -21.46595445 0.80400242 -13.9375 0.9375 C-11.50917127 0.97173753 -9.08078077 1.0019221 -6.65234375 1.02734375 C-5.05894165 1.05429321 -5.05894165 1.05429321 -3.43334961 1.08178711 C-1.0513657 1.27901724 -1.0513657 1.27901724 0 0 Z " fill="#70D4FE" transform="translate(444,72)"/>
<path d="M0 0 C1.02866684 -0.00701431 2.05733368 -0.01402863 3.11717224 -0.02125549 C6.44925285 -0.0387902 9.7811561 -0.0451145 13.11328125 -0.046875 C14.24658875 -0.04754974 15.37989624 -0.04822449 16.54754639 -0.04891968 C33.35165845 -0.03297876 49.82948759 0.30682666 66.42578125 3.203125 C67.9564624 3.46851074 67.9564624 3.46851074 69.51806641 3.73925781 C86.6003057 6.80944765 103.00098678 11.67716219 119.42578125 17.203125 C119.42578125 17.533125 119.42578125 17.863125 119.42578125 18.203125 C112.39724166 19.6618785 107.19659725 18.40612947 100.42578125 16.203125 C100.42578125 15.543125 100.42578125 14.883125 100.42578125 14.203125 C98.77578125 14.533125 97.12578125 14.863125 95.42578125 15.203125 C95.42578125 14.543125 95.42578125 13.883125 95.42578125 13.203125 C93.44578125 12.708125 93.44578125 12.708125 91.42578125 12.203125 C91.75578125 13.193125 92.08578125 14.183125 92.42578125 15.203125 C91.11006522 14.9483736 89.79817749 14.67378359 88.48828125 14.390625 C87.75738281 14.23980469 87.02648437 14.08898437 86.2734375 13.93359375 C85.35884766 13.57201172 85.35884766 13.57201172 84.42578125 13.203125 C84.09578125 12.213125 83.76578125 11.223125 83.42578125 10.203125 C82.43578125 10.203125 81.44578125 10.203125 80.42578125 10.203125 C80.42578125 10.863125 80.42578125 11.523125 80.42578125 12.203125 C79.70390625 11.873125 78.98203125 11.543125 78.23828125 11.203125 C75.52087514 10.06004795 75.52087514 10.06004795 72.86328125 10.203125 C70.42578125 10.203125 70.42578125 10.203125 68.5625 9.171875 C65.94446104 7.98490304 64.60881867 8.22749651 61.80078125 8.703125 C57.12419285 9.30057462 53.4494731 8.76076547 48.89453125 7.6796875 C45.05468764 6.93845187 41.32685724 7.14120316 37.42578125 7.203125 C37.09578125 6.873125 36.76578125 6.543125 36.42578125 6.203125 C35.10096152 5.94615566 33.76487139 5.74551127 32.42578125 5.578125 C31.70390625 5.48273438 30.98203125 5.38734375 30.23828125 5.2890625 C29.64015625 5.26070313 29.04203125 5.23234375 28.42578125 5.203125 C28.09578125 5.533125 27.76578125 5.863125 27.42578125 6.203125 C25.5196106 6.27863934 23.61067976 6.28621167 21.703125 6.265625 C20.52427734 6.25789063 19.34542969 6.25015625 18.13085938 6.2421875 C15.64648142 6.2164293 13.16210632 6.19039395 10.67773438 6.1640625 C2.13477521 6.10843824 -5.46659343 6.27057967 -13.57421875 9.203125 C-25.39644097 12.79201389 -25.39644097 12.79201389 -28.57421875 11.203125 C-30.24484703 11.51599885 -31.91085578 11.853679 -33.57421875 12.203125 C-35.78118805 12.35025629 -37.98983152 12.47339107 -40.19921875 12.578125 C-46.6657864 13.00471533 -52.41563601 14.25725358 -58.57421875 16.203125 C-60.46140625 16.7290625 -60.46140625 16.7290625 -62.38671875 17.265625 C-64.50428026 17.88843721 -66.60945263 18.55510452 -68.69921875 19.265625 C-72.01746901 20.34766313 -75.31773934 20.97261978 -78.74609375 21.6015625 C-83.22152331 22.49372329 -85.95733612 23.37743544 -89.57421875 26.203125 C-93.21076771 27.63467692 -96.92293122 28.84970195 -100.74609375 29.66796875 C-102.77903205 30.08977624 -102.77903205 30.08977624 -104.32421875 32.140625 C-106.86030093 34.465367 -108.84120309 34.88336045 -112.15234375 35.57421875 C-118.54825031 37.23509126 -124.69398016 40.21836181 -130.57421875 43.203125 C-133.53892806 44.5047047 -135.3080291 45.203125 -138.57421875 45.203125 C-140.24291109 46.13759271 -141.90866599 47.07817472 -143.55078125 48.05859375 C-146.40616582 49.6737051 -149.37113134 50.96345207 -152.3828125 52.2578125 C-154.31951851 53.09325431 -156.23054021 53.98769832 -158.13671875 54.890625 C-160.93942681 55.96074989 -162.74580558 56.42388907 -165.63671875 56.703125 C-169.62159316 57.2091408 -172.07347674 58.33063509 -175.57421875 60.203125 C-176.56421875 60.203125 -177.55421875 60.203125 -178.57421875 60.203125 C-178.57421875 60.863125 -178.57421875 61.523125 -178.57421875 62.203125 C-179.58484375 62.244375 -180.59546875 62.285625 -181.63671875 62.328125 C-185.87842189 62.88511632 -187.9230965 65.06356341 -190.94921875 67.9140625 C-193.18956633 69.6912613 -194.79078839 69.4228695 -197.57421875 69.203125 C-198.29609375 69.63625 -199.01796875 70.069375 -199.76171875 70.515625 C-202.42299824 72.11239269 -204.48678002 72.82494595 -207.44921875 73.640625 C-210.708284 74.55451718 -213.44164866 75.55374297 -216.32421875 77.328125 C-219.62739373 79.23380287 -221.84253775 79.72674019 -225.57421875 80.203125 C-228.27721955 81.04405858 -230.9371066 81.97479579 -233.6015625 82.9296875 C-237.5566175 84.30596323 -241.3849078 85.40855336 -245.51171875 86.140625 C-249.11805867 86.79835005 -252.21399783 87.80374485 -255.57421875 89.265625 C-259.8905575 91.11742964 -263.66874133 91.70248475 -268.34765625 91.83203125 C-271.08598306 92.28841905 -272.41672138 93.51544207 -274.57421875 95.203125 C-276.24088542 94.86979167 -277.90755208 94.53645833 -279.57421875 94.203125 C-283.30127938 94.77086721 -286.93763525 95.73276832 -290.55859375 96.7734375 C-292.85512539 97.2630082 -294.91701704 97.26513364 -297.26171875 97.203125 C-298.69872613 97.16549469 -300.1374752 97.15649641 -301.57421875 97.203125 C-301.90421875 97.533125 -302.23421875 97.863125 -302.57421875 98.203125 C-304.90755208 98.203125 -307.24088542 98.203125 -309.57421875 98.203125 C-310.16477051 98.36393555 -310.75532227 98.52474609 -311.36376953 98.69042969 C-317.15045478 100.0326032 -323.51492748 99.44492193 -329.44921875 99.453125 C-330.21077271 99.45546143 -330.97232666 99.45779785 -331.75695801 99.46020508 C-343.13692512 99.47338813 -354.13152719 98.76699746 -365.37109375 96.859375 C-371.30138888 95.85766253 -376.64310402 96.25414664 -382.57421875 97.203125 C-382.24421875 96.543125 -381.91421875 95.883125 -381.57421875 95.203125 C-380.91421875 95.203125 -380.25421875 95.203125 -379.57421875 95.203125 C-379.57421875 94.543125 -379.57421875 93.883125 -379.57421875 93.203125 C-380.32445312 93.37070313 -381.0746875 93.53828125 -381.84765625 93.7109375 C-389.45115787 95.22397687 -396.44546704 95.76750085 -403.57421875 92.203125 C-398.92155983 90.43033894 -394.72336863 89.81264231 -389.76171875 89.515625 C-389.08173828 89.46857422 -388.40175781 89.42152344 -387.70117188 89.37304688 C-385.9944027 89.26924536 -384.28392185 89.23053084 -382.57421875 89.203125 C-382.24421875 89.533125 -381.91421875 89.863125 -381.57421875 90.203125 C-379.57463511 90.24393283 -377.57376621 90.24566856 -375.57421875 90.203125 C-384.28263005 87.07364676 -384.28263005 87.07364676 -393.37890625 85.55078125 C-396.41332638 85.07024141 -399.21842803 84.09455374 -402.13671875 83.140625 C-406.8750894 81.61442887 -410.62700383 80.74291896 -415.57421875 81.203125 C-415.57421875 78.563125 -415.57421875 75.923125 -415.57421875 73.203125 C-412.22619597 73.80052525 -409.2022174 74.63296741 -406.0390625 75.875 C-379.73269424 85.83920412 -351.56640685 89.65020904 -323.51171875 89.515625 C-322.71195618 89.51380219 -321.9121936 89.51197937 -321.0881958 89.51010132 C-307.06918079 89.45672634 -293.42158761 88.47965037 -279.57421875 86.203125 C-278.50623047 86.03683594 -277.43824219 85.87054688 -276.33789062 85.69921875 C-239.90113546 79.94940934 -205.68834248 66.90235659 -172.29931641 51.59375 C-166.28821985 48.84312345 -160.30759358 46.21806792 -154.07421875 44.015625 C-147.9345886 41.81960261 -142.12870785 39.1709585 -136.26171875 36.328125 C-129.2986179 32.95543271 -122.31414739 29.68217468 -115.19921875 26.640625 C-114.43311279 26.30627441 -113.66700684 25.97192383 -112.87768555 25.62744141 C-108.41794716 23.74741864 -104.41638283 22.7755976 -99.57421875 22.203125 C-97.23865412 21.20834747 -94.90546804 20.20797383 -92.57421875 19.203125 C-91.20689113 18.85860151 -89.83072475 18.54797659 -88.44921875 18.265625 C-81.44186827 16.83311724 -74.68234307 14.50323949 -67.87109375 12.34765625 C-58.38015473 9.40785281 -48.78672441 7.86527527 -38.94921875 6.578125 C-37.94503906 6.4440625 -36.94085938 6.31 -35.90625 6.171875 C-33.46260923 5.84605623 -31.01861902 5.52318686 -28.57421875 5.203125 C-28.57421875 4.543125 -28.57421875 3.883125 -28.57421875 3.203125 C-26.69921875 2.890625 -24.82421875 2.578125 -22.94921875 2.265625 C-21.38300781 2.00458984 -21.38300781 2.00458984 -19.78515625 1.73828125 C-18.72554688 1.56167969 -17.6659375 1.38507813 -16.57421875 1.203125 C-15.73608643 1.03127686 -14.8979541 0.85942871 -14.03442383 0.68237305 C-9.34761839 0.03323743 -4.72650531 0.021265 0 0 Z " fill="#44C8FE" transform="translate(415.57421875,67.796875)"/>
<path d="M0 0 C0.96178162 0.00215515 1.92356323 0.0043103 2.91448975 0.00653076 C26.88242752 0.09248365 49.0373731 3.30262461 72.25 9.3125 C73.60351562 9.65837158 73.60351562 9.65837158 74.984375 10.01123047 C92.95200928 14.69710782 109.43029394 22.38310994 125.5625 31.5 C126.40353271 31.97453613 127.24456543 32.44907227 128.11108398 32.93798828 C133.10748466 35.84093058 137.63227454 39.06635497 142.14428711 42.67211914 C144.54839208 44.54495176 147.03731093 46.19141677 149.61010742 47.81982422 C163.89838653 56.86834293 175.65488108 68.48518564 187.46166992 80.50927734 C188.27095947 81.33250488 189.08024902 82.15573242 189.9140625 83.00390625 C190.98841553 84.10520874 190.98841553 84.10520874 192.08447266 85.22875977 C194.36221317 87.42047513 196.77923104 89.34377703 199.25 91.3125 C202.409649 94.85130688 205.3058918 98.59362649 208.25 102.3125 C208.88164063 103.055 209.51328125 103.7975 210.1640625 104.5625 C212.830428 107.79752165 214.59922689 110.0169809 214.625 114.3125 C214.50125 115.3025 214.3775 116.2925 214.25 117.3125 C209.79628135 114.00402329 205.30883536 110.3316074 203.42553711 104.96166992 C201.90070886 101.52534357 199.79771823 99.505389 197.12890625 96.86328125 C196.62834213 96.3645903 196.12777802 95.86589935 195.61204529 95.35209656 C194.55728348 94.30403081 193.49894293 93.25955574 192.43725586 92.21850586 C190.81424811 90.62671449 189.20221114 89.02444348 187.59179688 87.41992188 C182.23979467 81.98902011 182.23979467 81.98902011 176.25 77.3125 C176.25 76.3225 176.25 75.3325 176.25 74.3125 C175.22132813 73.96638672 175.22132813 73.96638672 174.171875 73.61328125 C170.5862735 72.01701748 167.60125251 69.86601175 164.5 67.5 C163.61634766 66.86094727 163.61634766 66.86094727 162.71484375 66.20898438 C159.98522317 64.13510023 158.40499637 62.80400164 157.359375 59.48828125 C157.32328125 58.77027344 157.2871875 58.05226562 157.25 57.3125 C156.363125 57.37953125 155.47625 57.4465625 154.5625 57.515625 C150.70484319 57.27907057 149.28694585 56.37914459 146.25 54.0625 C144.94675781 53.1034375 144.94675781 53.1034375 143.6171875 52.125 C141.86192938 50.78103999 140.11593108 49.4249678 138.375 48.0625 C135.19090863 46.27940883 132.6685726 45.64962155 129.125 44.875 C124.02417049 43.72198694 122.23924437 42.68960783 119.25 38.3125 C115.67492672 36.03319564 111.88595057 34.52448352 107.875 33.1875 C105.25 32.3125 105.25 32.3125 103.25 30.3125 C100.58757179 29.84959779 100.58757179 29.84959779 97.625 29.6875 C96.12066406 29.57535156 96.12066406 29.57535156 94.5859375 29.4609375 C93.42964844 29.38746094 93.42964844 29.38746094 92.25 29.3125 C92.25 28.3225 92.25 27.3325 92.25 26.3125 C90.93 26.3125 89.61 26.3125 88.25 26.3125 C88.25 25.3225 88.25 24.3325 88.25 23.3125 C58.73766258 12.80431925 27.88489118 6.1162934 -3.54296875 6.1796875 C-4.61444656 6.17873077 -5.68592438 6.17777405 -6.78987122 6.17678833 C-9.03431253 6.17611336 -11.27875589 6.17791947 -13.52319336 6.18212891 C-16.93933517 6.18750289 -20.35534649 6.18215236 -23.77148438 6.17578125 C-25.96614612 6.17644184 -28.16080778 6.17772262 -30.35546875 6.1796875 C-31.36506149 6.17766327 -32.37465424 6.17563904 -33.4148407 6.17355347 C-43.35795264 5.86433284 -43.35795264 5.86433284 -52.75 8.3125 C-55.0829866 8.35272391 -57.41706666 8.35570247 -59.75 8.3125 C-59.75 8.9725 -59.75 9.6325 -59.75 10.3125 C-68.52867628 12.37000225 -77.09561313 13.81923952 -86.05859375 14.6875 C-90.01806846 15.35788725 -93.08787425 16.68983433 -96.75 18.3125 C-99.43316558 19.11222251 -102.14683091 19.74839784 -104.875 20.375 C-109.31140663 21.40739743 -113.53862501 22.55164635 -117.75 24.3125 C-119.68046743 24.79511686 -121.61130544 25.27655187 -123.546875 25.73828125 C-127.34583129 26.72843475 -131.04305817 28.02536742 -134.75 29.3125 C-135.08 28.6525 -135.41 27.9925 -135.75 27.3125 C-129.11074662 24.57524561 -122.44447117 21.9118319 -115.75 19.3125 C-114.66187012 18.88928467 -114.66187012 18.88928467 -113.55175781 18.45751953 C-94.25833113 11.11366061 -73.2941224 7.46402589 -53 4 C-51.72068604 3.77932861 -51.72068604 3.77932861 -50.41552734 3.55419922 C-33.66112814 0.85085683 -16.95121771 -0.06888792 0 0 Z " fill="#01A8FD" transform="translate(446.75,62.6875)"/>
<path d="M0 0 C-0.33 0.99 -0.66 1.98 -1 3 C-3.05396694 3.75312121 -5.11823512 4.48471189 -7.21484375 5.109375 C-10.33415317 6.10685403 -13.29221138 7.360186 -16.3125 8.625 C-21.79608113 10.78247454 -26.58173074 11.49468458 -32.43359375 11.76171875 C-35.76652673 12.07116915 -38.04695501 13.46195573 -41 15 C-43.7356299 15.58949601 -46.47772604 15.98959221 -49.24609375 16.3984375 C-54.7688075 17.28345094 -60.232609 18.44166921 -65.70556641 19.59155273 C-66.92445557 19.84207397 -66.92445557 19.84207397 -68.16796875 20.09765625 C-68.88235107 20.24726807 -69.5967334 20.39687988 -70.33276367 20.55102539 C-76.99663716 21.67275201 -83.5788602 22.14661204 -90.33032227 22.09765625 C-91.10882538 22.09619598 -91.88732849 22.09473572 -92.68942261 22.0932312 C-94.36226104 22.08945618 -96.03509561 22.08337311 -97.70791817 22.07516479 C-100.36143419 22.06228138 -103.01489959 22.05585541 -105.66844177 22.05102539 C-111.29981736 22.03965662 -116.93115088 22.02041388 -122.5625 22 C-129.09655917 21.97632991 -135.63059409 21.95596309 -142.1646862 21.94406128 C-144.76807296 21.93761959 -147.37138441 21.92511457 -149.9747467 21.91235352 C-151.58285458 21.90871834 -153.19096313 21.90536694 -154.79907227 21.90234375 C-155.51358047 21.89717743 -156.22808868 21.89201111 -156.96424866 21.88668823 C-160.46488882 21.88632507 -163.86599268 22.06476702 -167.33140564 22.52514648 C-170.74565094 22.96707771 -173.05767977 22.88892548 -176.375 22.125 C-177.20773438 21.94195312 -178.04046875 21.75890625 -178.8984375 21.5703125 C-181 21 -181 21 -183 20 C-178.34734108 18.22721394 -174.14914988 17.60951731 -169.1875 17.3125 C-168.50751953 17.26544922 -167.82753906 17.21839844 -167.12695312 17.16992188 C-165.42018395 17.06612036 -163.7097031 17.02740584 -162 17 C-161.67 17.33 -161.34 17.66 -161 18 C-159.00041636 18.04080783 -156.99954746 18.04254356 -155 18 C-163.7084113 14.87052176 -163.7084113 14.87052176 -172.8046875 13.34765625 C-175.83910763 12.86711641 -178.64420928 11.89142874 -181.5625 10.9375 C-186.30087065 9.41130387 -190.05278508 8.53979396 -195 9 C-195 6.36 -195 3.72 -195 1 C-191.65197722 1.59740025 -188.62799865 2.42984241 -185.46484375 3.671875 C-159.15847549 13.63607912 -130.9921881 17.44708404 -102.9375 17.3125 C-102.13773743 17.31067719 -101.33797485 17.30885437 -100.51397705 17.30697632 C-86.49496204 17.25360134 -72.84736886 16.27652537 -59 14 C-57.93201172 13.83371094 -56.86402344 13.66742188 -55.76367188 13.49609375 C-38.04046066 10.69932752 -17.38338926 0 0 0 Z " fill="#17BAFE" transform="translate(195,140)"/>
<path d="M0 0 C5.00557715 1.70581121 8.92141057 4.66876485 13.09570312 7.81054688 C15.91036142 9.84576133 17.81201984 10.97340114 21.28515625 11.46484375 C22.18105469 11.64144531 23.07695313 11.81804687 24 12 C25.1171875 14.34375 25.1171875 14.34375 26 17 C27.86148271 18.90785237 27.86148271 18.90785237 30.125 20.5 C30.92164063 21.09296875 31.71828125 21.6859375 32.5390625 22.296875 C35.43513105 24.30113831 38.40090425 26.13066827 41.46875 27.859375 C43 29 43 29 44 32 C45.52696181 33.557576 45.52696181 33.557576 47.4453125 35.0859375 C52.48987847 39.36965416 57.18248685 43.9616329 61.875 48.625 C62.72835937 49.45773438 63.58171875 50.29046875 64.4609375 51.1484375 C65.275625 51.95796875 66.0903125 52.7675 66.9296875 53.6015625 C68.03159424 54.68945068 68.03159424 54.68945068 69.15576172 55.79931641 C71.10626942 58.12680865 71.96175134 60.16981755 73 63 C75.04042225 65.38652938 77.20993601 67.58517176 79.41796875 69.81640625 C81 72 81 72 80.73828125 74.27734375 C80.49464844 74.84582031 80.25101563 75.41429687 80 76 C79.48953125 75.41734375 78.9790625 74.8346875 78.453125 74.234375 C69.83503419 64.51610238 60.94973656 55.28597331 50.7578125 47.19921875 C47.9054936 44.92463583 45.14506241 42.56130007 42.375 40.1875 C37.65466473 36.25896291 32.81177896 32.56669049 27.8125 29 C27.10399902 28.49452637 26.39549805 27.98905273 25.66552734 27.46826172 C21.93403895 24.86483934 18.17519934 22.49001884 14.16796875 20.33203125 C13.38639404 19.90599609 12.60481934 19.47996094 11.79956055 19.04101562 C10.30505088 18.24258982 8.79496414 17.47244112 7.26879883 16.73632812 C5.19696409 15.6329287 3.61910393 14.70333804 2 13 C1.29889947 10.66176639 1.09697328 8.62674837 1.05273438 6.19018555 C0.99948292 3.97852426 0.60828667 2.11968669 0 0 Z " fill="#35C2FE" transform="translate(580,108)"/>
<path d="M0 0 C0 0.33 0 0.66 0 1 C-1.19625 1.12375 -2.3925 1.2475 -3.625 1.375 C-7.2923534 1.83261352 -10.51566926 2.73971016 -14 4 C-25.82222222 7.58888889 -25.82222222 7.58888889 -29 6 C-30.67062828 6.31287385 -32.33663703 6.650554 -34 7 C-36.2069693 7.14713129 -38.41561277 7.27026607 -40.625 7.375 C-47.09156765 7.80159033 -52.84141726 9.05412858 -59 11 C-60.258125 11.350625 -61.51625 11.70125 -62.8125 12.0625 C-64.93006151 12.68531221 -67.03523388 13.35197952 -69.125 14.0625 C-71.76242978 14.92253145 -74.27925529 15.48176291 -77 16 C-78.7325 16.4640625 -78.7325 16.4640625 -80.5 16.9375 C-85.25787425 18.16095338 -90.08510224 18.78506761 -94.94921875 19.4375 C-97.86828858 19.97571518 -100.26555956 20.8820005 -103 22 C-103.99 22 -104.98 22 -106 22 C-106 22.66 -106 23.32 -106 24 C-108.22884627 25.00031009 -110.45983357 25.99504735 -112.6953125 26.98046875 C-114.32442724 27.70114493 -115.94621611 28.43849039 -117.5625 29.1875 C-120.36569429 30.1218981 -123.10450178 30.34891623 -126.03125 30.66015625 C-128.99600014 31.1719286 -131.35523529 32.59665546 -134 34 C-135.52896041 34.61586846 -137.07194849 35.19769131 -138.625 35.75 C-139.72714844 36.14445312 -139.72714844 36.14445312 -140.8515625 36.546875 C-143.27809612 37.058653 -144.64732198 36.66621241 -147 36 C-136.62789987 30.95487098 -126.22932951 25.97873289 -115.625 21.4375 C-114.86018311 21.10363281 -114.09536621 20.76976563 -113.30737305 20.42578125 C-108.84603949 18.54545384 -104.84381717 17.57266804 -100 17 C-97.66443537 16.00522247 -95.33124929 15.00484883 -93 14 C-91.63267238 13.65547651 -90.256506 13.34485159 -88.875 13.0625 C-81.86764952 11.62999224 -75.10812432 9.30011449 -68.296875 7.14453125 C-46.48843087 0.38939997 -22.68813264 -0.13792178 0 0 Z " fill="#44C8FE" transform="translate(416,73)"/>
<path d="M0 0 C3.34802278 0.59740025 6.37200135 1.42984241 9.53515625 2.671875 C24.78184352 8.44694446 39.89247772 11.64255324 56 14 C56.81710449 14.12600586 57.63420898 14.25201172 58.47607422 14.38183594 C74.15694298 16.75314075 90.17222241 16.64153625 106 17 C105.67 17.66 105.34 18.32 105 19 C97.4926832 19.0254785 89.98537767 19.04292065 82.47802734 19.05493164 C79.92724185 19.05994205 77.37645921 19.0667522 74.82568359 19.07543945 C71.14680272 19.08764972 67.46796003 19.09326138 63.7890625 19.09765625 C62.09470566 19.10539818 62.09470566 19.10539818 60.36611938 19.11329651 C42.43149566 19.11455036 42.43149566 19.11455036 36.0625 16.0625 C31.69774145 14.16566568 27.61929713 13.30141515 22.93359375 12.5703125 C19.59936539 11.92211364 16.47694244 10.93216556 13.25 9.875 C8.58048378 8.37229514 4.87669611 7.54635385 0 8 C0 5.36 0 2.72 0 0 Z " fill="#03ACFC" transform="translate(0,141)"/>
<path d="M0 0 C1.02866684 -0.00701431 2.05733368 -0.01402863 3.11717224 -0.02125549 C6.44925285 -0.0387902 9.7811561 -0.0451145 13.11328125 -0.046875 C14.24658875 -0.04754974 15.37989624 -0.04822449 16.54754639 -0.04891968 C33.35165845 -0.03297876 49.82948759 0.30682666 66.42578125 3.203125 C67.9564624 3.46851074 67.9564624 3.46851074 69.51806641 3.73925781 C86.6003057 6.80944765 103.00098678 11.67716219 119.42578125 17.203125 C119.42578125 17.533125 119.42578125 17.863125 119.42578125 18.203125 C112.39724166 19.6618785 107.19659725 18.40612947 100.42578125 16.203125 C100.42578125 15.543125 100.42578125 14.883125 100.42578125 14.203125 C98.77578125 14.533125 97.12578125 14.863125 95.42578125 15.203125 C95.42578125 13.883125 95.42578125 12.563125 95.42578125 11.203125 C94.27142578 11.07357422 94.27142578 11.07357422 93.09375 10.94140625 C86.69862297 10.15906187 80.37778665 9.22056887 74.05078125 7.9921875 C72.90971924 7.77135498 71.76865723 7.55052246 70.59301758 7.32299805 C68.34337307 6.88184486 66.09562629 6.43085026 63.8503418 5.96801758 C48.18269351 2.90010427 32.27585838 3.03684379 16.36767578 3.07275391 C13.56016613 3.07810711 10.75281732 3.07277247 7.9453125 3.06640625 C-4.25617552 3.06241126 -16.39487837 3.47735733 -28.57421875 4.203125 C-28.57421875 3.873125 -28.57421875 3.543125 -28.57421875 3.203125 C-26.69921875 2.890625 -24.82421875 2.578125 -22.94921875 2.265625 C-21.90507812 2.09160156 -20.8609375 1.91757813 -19.78515625 1.73828125 C-18.19574219 1.47337891 -18.19574219 1.47337891 -16.57421875 1.203125 C-15.73608643 1.03127686 -14.8979541 0.85942871 -14.03442383 0.68237305 C-9.34761839 0.03323743 -4.72650531 0.021265 0 0 Z " fill="#14BAFE" transform="translate(415.57421875,67.796875)"/>
<path d="M0 0 C-1.26972656 0.23074219 -2.53945313 0.46148437 -3.84765625 0.69921875 C-13.45134119 2.49985112 -22.60275208 4.63690204 -31.80859375 7.9140625 C-34.47644264 8.82184952 -36.98866092 9.48377082 -39.75 10 C-44.2598748 10.89010687 -48.14595794 12.79471037 -52.28125 14.7578125 C-57.00046359 16.91400492 -61.76958675 19 -67 19 C-67 19.66 -67 20.32 -67 21 C-69.22884627 22.00031009 -71.45983357 22.99504735 -73.6953125 23.98046875 C-75.32442724 24.70114493 -76.94621611 25.43849039 -78.5625 26.1875 C-81.36569429 27.1218981 -84.10450178 27.34891623 -87.03125 27.66015625 C-89.99600014 28.1719286 -92.35523529 29.59665546 -95 31 C-96.52896041 31.61586846 -98.07194849 32.19769131 -99.625 32.75 C-100.72714844 33.14445312 -100.72714844 33.14445312 -101.8515625 33.546875 C-104.27809612 34.058653 -105.64732198 33.66621241 -108 33 C-97.62789987 27.95487098 -87.22932951 22.97873289 -76.625 18.4375 C-75.86018311 18.10363281 -75.09536621 17.76976563 -74.30737305 17.42578125 C-69.84603949 15.54545384 -65.84381717 14.57266804 -61 14 C-58.66443537 13.00522247 -56.33124929 12.00484883 -54 11 C-52.63267238 10.65547651 -51.256506 10.34485159 -49.875 10.0625 C-42.86764952 8.62999224 -36.10812432 6.30011449 -29.296875 4.14453125 C-8.18007295 -2.39636498 -8.18007295 -2.39636498 0 0 Z " fill="#22BDFE" transform="translate(377,76)"/>
<path d="M0 0 C5.00557715 1.70581121 8.92141057 4.66876485 13.09570312 7.81054688 C15.91036142 9.84576133 17.81201984 10.97340114 21.28515625 11.46484375 C22.18105469 11.64144531 23.07695313 11.81804687 24 12 C25.1171875 14.34375 25.1171875 14.34375 26 17 C27.86148271 18.90785237 27.86148271 18.90785237 30.125 20.5 C30.92164063 21.09296875 31.71828125 21.6859375 32.5390625 22.296875 C35.43513105 24.30113831 38.40090425 26.13066827 41.46875 27.859375 C43 29 43 29 44 32 C45.52327637 33.54660186 45.52327637 33.54660186 47.4375 35.06640625 C52.56916551 39.4203037 57.26755799 44.15780626 62 48.9375 C62.87011719 49.81212891 63.74023438 50.68675781 64.63671875 51.58789062 C66.76013549 53.72297449 68.88116378 55.86037205 71 58 C70.505 58.99 70.505 58.99 70 60 C68.7260098 59.23439544 67.45593488 58.46227374 66.1875 57.6875 C65.47980469 57.25824219 64.77210938 56.82898438 64.04296875 56.38671875 C60.79923373 54.18494833 59.25557574 52.76672721 58 49 C56.3390856 47.5757857 56.3390856 47.5757857 54.3125 46.25 C51.41341219 44.17627527 49.15291845 42.16522972 46.9375 39.375 C44.89313071 36.82515479 43.07419836 35.28722555 40.1875 33.75 C37 32 37 32 36 29 C32.26113709 25.62723971 32.26113709 25.62723971 28 23 C28 22.34 28 21.68 28 21 C26.02 20.34 24.04 19.68 22 19 C22 18.34 22 17.68 22 17 C21.01 17 20.02 17 19 17 C19 16.34 19 15.68 19 15 C18.34 15 17.68 15 17 15 C17 14.01 17 13.02 17 12 C16.29359375 11.72929688 15.5871875 11.45859375 14.859375 11.1796875 C11.9023306 9.9597047 9.08604933 8.60434465 6.25 7.125 C5.28578125 6.63257812 4.3215625 6.14015625 3.328125 5.6328125 C1 4 1 4 0.171875 1.8046875 C0.11515625 1.20914063 0.0584375 0.61359375 0 0 Z " fill="#19BBFE" transform="translate(580,108)"/>
<path d="M0 0 C-4.1758855 3.81276502 -9.73644439 5.30150519 -15.171875 6.46484375 C-17.2048133 6.88665124 -17.2048133 6.88665124 -18.75 8.9375 C-21.28608218 11.262242 -23.26698434 11.68023545 -26.578125 12.37109375 C-32.97403156 14.03196626 -39.11976141 17.01523681 -45 20 C-47.96470931 21.3015797 -49.73381035 22 -53 22 C-54.66869234 22.93446771 -56.33444724 23.87504972 -57.9765625 24.85546875 C-61.51811354 26.85870129 -65.26192515 28.40359896 -69 30 C-69.70253906 30.30292969 -70.40507812 30.60585937 -71.12890625 30.91796875 C-72.75091277 31.61592307 -74.37519205 32.30859236 -76 33 C-76.33 32.34 -76.66 31.68 -77 31 C-76.34 31 -75.68 31 -75 31 C-75 30.34 -75 29.68 -75 29 C-74.12988281 28.63648438 -74.12988281 28.63648438 -73.2421875 28.265625 C-68.46309095 26.21518754 -64.32219056 23.91278059 -60 21 C-47.28 15 -47.28 15 -41 15 C-41 14.34 -41 13.68 -41 13 C-34 10.66666667 -27 8.33333333 -20 6 C-20 5.34 -20 4.68 -20 4 C-4.57142857 -2.28571429 -4.57142857 -2.28571429 0 0 Z " fill="#53CCFE" transform="translate(330,91)"/>
<path d="M0 0 C-0.33 0.99 -0.66 1.98 -1 3 C-3.05396694 3.75312121 -5.11823512 4.48471189 -7.21484375 5.109375 C-10.33415317 6.10685403 -13.29221138 7.360186 -16.3125 8.625 C-21.79608113 10.78247454 -26.58173074 11.49468458 -32.43359375 11.76171875 C-35.76652673 12.07116915 -38.04695501 13.46195573 -41 15 C-43.7356299 15.58949601 -46.47772604 15.98959221 -49.24609375 16.3984375 C-54.7688075 17.28345094 -60.232609 18.44166921 -65.70556641 19.59155273 C-73.50710793 21.19502245 -81.08257619 22.1464992 -89.0625 22.0625 C-90.75052734 22.04896484 -90.75052734 22.04896484 -92.47265625 22.03515625 C-93.30667969 22.02355469 -94.14070313 22.01195312 -95 22 C-95 21.67 -95 21.34 -95 21 C-85.99592496 19.2729614 -77.14034937 18.47449901 -68 18 C-68 17.34 -68 16.68 -68 16 C-63.07046556 14.85287563 -58.15585853 13.82984633 -53.1640625 12.9921875 C-36.40885614 10.15345309 -16.51338019 0 0 0 Z " fill="#2EC1FD" transform="translate(195,140)"/>
<path d="M0 0 C49.97828928 -0.66715268 49.97828928 -0.66715268 72 4 C70.68 5.32 69.36 6.64 68 8 C61.125 6.125 61.125 6.125 60 5 C56.07915724 4.8009185 56.07915724 4.8009185 52.265625 5.5625 C48.95739088 6.20133142 45.85675999 5.60889818 42.5625 5.125 C41.12139725 4.93003499 39.67998358 4.73735564 38.23828125 4.546875 C37.52236816 4.45212891 36.80645508 4.35738281 36.06884766 4.25976562 C28.96552362 3.36786844 21.90540387 2.94505019 14.75 3.0625 C9.52410583 3.12504395 5.04256696 2.34468452 0 1 C0 0.67 0 0.34 0 0 Z " fill="#009CFC" transform="translate(426,63)"/>
<path d="M0 0 C-0.99 0.33 -1.98 0.66 -3 1 C-3 1.66 -3 2.32 -3 3 C-4.02480469 3.32613281 -5.04960937 3.65226562 -6.10546875 3.98828125 C-7.46625123 4.42936247 -8.82692249 4.87078693 -10.1875 5.3125 C-10.86103516 5.52583984 -11.53457031 5.73917969 -12.22851562 5.95898438 C-16.17326728 7.24824467 -19.46862733 8.77720705 -23 11 C-24.56780345 11.68266938 -26.1519169 12.32907947 -27.75 12.9375 C-31.1470094 14.26588278 -34.52678109 15.61492021 -37.875 17.0625 C-38.57367188 17.36285156 -39.27234375 17.66320312 -39.9921875 17.97265625 C-42.0529479 18.94137819 -42.0529479 18.94137819 -43.81640625 20.4609375 C-46.72148428 22.5085238 -49.69878127 23.43418636 -53.0625 24.5625 C-56.77014523 25.81135007 -59.74058413 26.82705609 -63 29 C-65.69921875 29.1953125 -65.69921875 29.1953125 -68.6875 29.125 C-70.17830078 29.09792969 -70.17830078 29.09792969 -71.69921875 29.0703125 C-72.45847656 29.04710937 -73.21773437 29.02390625 -74 29 C-70.8617309 26.9078206 -67.95796014 25.73146774 -64.4375 24.3828125 C-63.08191969 23.85884972 -61.72645593 23.33458535 -60.37109375 22.81005859 C-59.65808105 22.53538757 -58.94506836 22.26071655 -58.21044922 21.97772217 C-45.20894912 16.9621501 -32.38858513 11.67670441 -19.71875 5.87158203 C-3.26318722 -1.63159361 -3.26318722 -1.63159361 0 0 Z " fill="#1DBDFB" transform="translate(269,111)"/>
<path d="M0 0 C2.0625 0.4375 2.0625 0.4375 4 1 C3.01 1 2.02 1 1 1 C1 1.66 1 2.32 1 3 C0.27296875 3.21914062 -0.4540625 3.43828125 -1.203125 3.6640625 C-9.51059808 6.2841117 -18.15589199 9.28736248 -25.140625 14.640625 C-27.645073 16.47160799 -29.96066325 16.65462082 -33 17 C-33 17.66 -33 18.32 -33 19 C-35.06049855 19.81756238 -37.12348853 20.62884734 -39.1875 21.4375 C-40.33605469 21.88996094 -41.48460937 22.34242187 -42.66796875 22.80859375 C-45.47123233 23.81093301 -48.07112576 24.52012795 -51 25 C-51 25.66 -51 26.32 -51 27 C-52.11375 27.12375 -53.2275 27.2475 -54.375 27.375 C-58.03103677 27.6465813 -58.03103677 27.6465813 -60 30 C-62.625 30.125 -62.625 30.125 -65 30 C-61.41632042 25.63725964 -57.06677721 24.10987379 -52 22 C-50.10093278 21.15304758 -48.20513648 20.29872696 -46.3125 19.4375 C-44.91644531 18.80521484 -44.91644531 18.80521484 -43.4921875 18.16015625 C-41.61440607 17.28601662 -39.76715939 16.34583968 -37.9375 15.375 C-32.95592671 13.04319974 -27.53730108 11 -22 11 C-22 10.34 -22 9.68 -22 9 C-15.93615894 6.12120677 -9.80462264 3.85979834 -3.40625 1.83203125 C-1.07729245 1.22302741 -1.07729245 1.22302741 0 0 Z " fill="#47C8FE" transform="translate(288,103)"/>
<path d="M0 0 C-3.28790189 2.19193459 -5.08401885 2.46621459 -8.953125 2.96484375 C-10.13003906 3.12533203 -11.30695313 3.28582031 -12.51953125 3.45117188 C-14.99064648 3.7733225 -17.46199896 4.09365893 -19.93359375 4.41210938 C-26.19147488 5.26855876 -31.31459014 6.29131838 -37 9 C-39.68191056 9.8035624 -42.39697483 10.43593089 -45.125 11.0625 C-49.56140663 12.09489743 -53.78862501 13.23914635 -58 15 C-59.93046743 15.48261686 -61.86130544 15.96405187 -63.796875 16.42578125 C-67.59583129 17.41593475 -71.29305817 18.71286742 -75 20 C-75.33 19.34 -75.66 18.68 -76 18 C-36.43070502 1.68623398 -36.43070502 1.68623398 -19.875 2.0625 C-15.73615682 1.97252515 -11.78294318 1.22472213 -7.7265625 0.4375 C-5.09675686 0.01552546 -2.65767489 -0.07731418 0 0 Z " fill="#05B3FC" transform="translate(387,72)"/>
<path d="M0 0 C3.57498424 0.63698257 6.86119215 1.57593825 10.2734375 2.8125 C11.2634375 3.16570312 12.2534375 3.51890625 13.2734375 3.8828125 C15.33423206 4.62511382 17.39413698 5.36988982 19.453125 6.1171875 C24.66271798 7.97099072 29.48337484 9.50272675 35 10 C35 10.99 35 11.98 35 13 C27.43813881 13.47509076 21.75456725 12.84085521 14.75390625 9.95703125 C10.01223991 8.30921812 5.00422488 8 0 8 C0 5.36 0 2.72 0 0 Z " fill="#008AFE" transform="translate(0,141)"/>
<path d="M0 0 C1.39460449 0.11758667 1.39460449 0.11758667 2.81738281 0.23754883 C7.83196159 0.72128964 12.39420545 1.56865061 17.1875 3.125 C16.5275 3.785 15.8675 4.445 15.1875 5.125 C12.73060221 4.94080694 10.42074731 4.65696621 8 4.25 C2.97945881 3.45912711 -1.73535023 3.11209746 -6.8125 3.125 C-7.3075 2.63 -7.3075 2.63 -7.8125 2.125 C-9.13731973 1.86803066 -10.47340986 1.66738627 -11.8125 1.5 C-12.534375 1.40460938 -13.25625 1.30921875 -14 1.2109375 C-14.598125 1.18257813 -15.19625 1.15421875 -15.8125 1.125 C-16.1425 1.455 -16.4725 1.785 -16.8125 2.125 C-18.25539787 2.21795815 -19.70279785 2.24246513 -21.14868164 2.23852539 C-22.53000023 2.23841209 -22.53000023 2.23841209 -23.93922424 2.23829651 C-24.94025681 2.23313522 -25.94128937 2.22797394 -26.97265625 2.22265625 C-27.99225937 2.2212413 -29.01186249 2.21982635 -30.06236267 2.21836853 C-33.33327107 2.21275097 -36.60411213 2.2001955 -39.875 2.1875 C-42.08658756 2.18248726 -44.29817618 2.17792396 -46.50976562 2.17382812 C-51.94403357 2.16277584 -57.37826197 2.14602063 -62.8125 2.125 C-59.13128386 -0.32914409 -56.15398878 -0.33010684 -51.875 -0.5 C-51.05161133 -0.53649658 -50.22822266 -0.57299316 -49.37988281 -0.6105957 C-32.9176909 -1.25266329 -16.42504673 -1.3963695 0 0 Z " fill="#31C2FE" transform="translate(459.8125,71.875)"/>
<path d="M0 0 C6.59095715 2.24569368 12.41381989 5.27563512 18.4375 8.75 C19.77264648 9.50023438 19.77264648 9.50023438 21.13476562 10.265625 C28.35223155 14.39892908 35.20103198 18.98894377 41 25 C39.35 25 37.7 25 36 25 C36 24.34 36 23.68 36 23 C35.01 23 34.02 23 33 23 C33 22.34 33 21.68 33 21 C32.401875 20.896875 31.80375 20.79375 31.1875 20.6875 C28.66052987 19.89330939 27.84722959 18.84722959 26 17 C23.40084462 15.80972016 23.40084462 15.80972016 21 15 C21 14.34 21 13.68 21 13 C19.783125 12.649375 18.56625 12.29875 17.3125 11.9375 C10.79882123 9.79402104 4.9495004 6.35636422 -1 3 C-0.67 2.01 -0.34 1.02 0 0 Z " fill="#0092FC" transform="translate(553,85)"/>
<path d="M0 0 C0 0.33 0 0.66 0 1 C-7.72720775 2.23107719 -15.1683819 3.2700558 -23 3 C-16.48913992 -1.34057339 -7.55690715 -0.11335361 0 0 Z M-23 3 C-23 3.66 -23 4.32 -23 5 C-23.99 5.10957031 -24.98 5.21914062 -26 5.33203125 C-33.04229192 6.15959196 -39.4532479 7.14323545 -46 10 C-51.82893274 12.25208765 -57.8502398 13.06459958 -64 14 C-64.33 14.99 -64.66 15.98 -65 17 C-68.3 17.33 -71.6 17.66 -75 18 C-68.01274237 12.75955677 -60.29988605 10.69762648 -51.87890625 8.71875 C-49.31217157 8.077937 -46.86772398 7.31676772 -44.375 6.4375 C-37.34869359 4.01902497 -30.43336623 2.67681016 -23 3 Z " fill="#37C4FE" transform="translate(397,74)"/>
<path d="M0 0 C1.22103928 0.00022659 2.44207855 0.00045319 3.70011902 0.00068665 C5.67834404 0.02391243 5.67834404 0.02391243 7.6965332 0.04760742 C9.05987583 0.05320374 10.4232245 0.05747367 11.78657532 0.06047058 C15.37225038 0.07191668 18.95756 0.10138131 22.54309082 0.13458252 C26.20291195 0.16528878 29.86279222 0.17897707 33.52270508 0.1940918 C40.70190801 0.22625168 47.88081 0.27744464 55.05981445 0.34057617 C55.05981445 0.67057617 55.05981445 1.00057617 55.05981445 1.34057617 C48.02643539 2.18656788 41.1278857 2.46462755 34.0480957 2.40307617 C33.03563278 2.39928955 32.02316986 2.39550293 30.98002625 2.39160156 C27.77741 2.37949401 24.57488864 2.3608655 21.37231445 2.34057617 C17.13924384 2.31389115 12.90621912 2.2939531 8.6730957 2.27807617 C7.23224358 2.26562866 7.23224358 2.26562866 5.76228333 2.25292969 C0.74450047 2.23467885 -3.99505174 2.47574169 -8.94018555 3.34057617 C-6.32024917 -0.09169526 -4.18329331 -0.02587604 0 0 Z " fill="#31C2FE" transform="translate(41.940185546875,161.659423828125)"/>
<path d="M0 0 C-2.68841017 3.39016429 -5.98332743 4.22779318 -10 5.5625 C-13.73029314 6.80981677 -16.7231163 7.81541087 -20 10 C-22.69921875 10.1953125 -22.69921875 10.1953125 -25.6875 10.125 C-27.17830078 10.09792969 -27.17830078 10.09792969 -28.69921875 10.0703125 C-29.45847656 10.04710937 -30.21773437 10.02390625 -31 10 C-26.52721876 7.01814584 -21.60685934 5.29239127 -16.625 3.3125 C-15.5834375 2.88388672 -14.541875 2.45527344 -13.46875 2.01367188 C-11.95667969 1.41329102 -11.95667969 1.41329102 -10.4140625 0.80078125 C-9.4957666 0.43122314 -8.5774707 0.06166504 -7.63134766 -0.3190918 C-4.68845059 -1.08061898 -2.89648044 -0.82078941 0 0 Z " fill="#30C0FC" transform="translate(226,130)"/>
<path d="M0 0 C2.0625 0.4375 2.0625 0.4375 4 1 C3.01 1 2.02 1 1 1 C1 1.66 1 2.32 1 3 C0.27296875 3.21914062 -0.4540625 3.43828125 -1.203125 3.6640625 C-6.71584583 5.40268984 -11.86872024 7.32576161 -17 10 C-24.95483508 14.12859068 -33.37981698 16.649041 -42 19 C-39.74228948 16.41873224 -37.8945817 15.41391092 -34.625 14.4375 C-32.0555368 13.64497077 -29.61430622 12.8406917 -27.125 11.8125 C-25 11 -25 11 -22 11 C-22 10.34 -22 9.68 -22 9 C-15.93615894 6.12120677 -9.80462264 3.85979834 -3.40625 1.83203125 C-1.07729245 1.22302741 -1.07729245 1.22302741 0 0 Z " fill="#37C4FE" transform="translate(288,103)"/>
<path d="M0 0 C-3.26545761 1.88391785 -6.28111761 2.49287967 -10 3 C-10 3.66 -10 4.32 -10 5 C-34.12900712 10.42631345 -34.12900712 10.42631345 -45 10 C-41.37796392 7.85634599 -37.58830487 7.21050588 -33.5 6.5 C-32.79311035 6.37109375 -32.0862207 6.2421875 -31.35791016 6.109375 C-27.04041205 5.32951533 -22.71368754 4.65243422 -18.375 4 C-11.63971422 2.92744437 -7.01593615 -0.42095617 0 0 Z " fill="#42C7FE" transform="translate(167,151)"/>
<path d="M0 0 C-3.47325181 1.1577506 -6.36067448 1.06866652 -10 1 C-10 1.66 -10 2.32 -10 3 C-14.95 3.33 -19.9 3.66 -25 4 C-25.33 3.34 -25.66 2.68 -26 2 C-22.23272586 1.27177027 -18.46087541 0.5708634 -14.6875 -0.125 C-13.61564453 -0.33253906 -12.54378906 -0.54007813 -11.43945312 -0.75390625 C-9.89741211 -1.03427734 -9.89741211 -1.03427734 -8.32421875 -1.3203125 C-6.9024231 -1.58739014 -6.9024231 -1.58739014 -5.4519043 -1.85986328 C-3 -2 -3 -2 0 0 Z " fill="#1DB9FA" transform="translate(155,153)"/>
<path d="M0 0 C1.32 0.99 2.64 1.98 4 3 C4.66 2.01 5.32 1.02 6 0 C8.97550031 3.0684847 9.96474513 4.46236331 10.25 8.8125 C10.1675 9.864375 10.085 10.91625 10 12 C5.99620626 9.02575322 3.00297061 5.94676137 0 2 C0 1.34 0 0.68 0 0 Z " fill="#08B2FD" transform="translate(651,168)"/>
<path d="M0 0 C9.405 1.485 9.405 1.485 19 3 C18 5 18 5 15.86328125 5.71484375 C12.33556871 6.06617119 9.61861811 5.42894397 6.1875 4.5625 C5.02605469 4.27503906 3.86460938 3.98757812 2.66796875 3.69140625 C1.78753906 3.46324219 0.90710937 3.23507813 0 3 C0 2.01 0 1.02 0 0 Z " fill="#0097FD" transform="translate(37,152)"/>
<path d="M0 0 C4.28379643 0.71260094 8.25093853 2.06921736 12.3125 3.5625 C12.95767578 3.79646484 13.60285156 4.03042969 14.26757812 4.27148438 C15.84621219 4.84447007 17.42327026 5.42179464 19 6 C19 6.33 19 6.66 19 7 C12.56025419 6.37679879 6.32427599 5.35991738 0 4 C0 2.68 0 1.36 0 0 Z " fill="#0068FD" transform="translate(0,141)"/>
<path d="M0 0 C10.55808656 1.92710706 10.55808656 1.92710706 15 4 C15 4.99 15 5.98 15 7 C4.47028154 4.84358707 4.47028154 4.84358707 1 3 C0.67 2.01 0.34 1.02 0 0 Z " fill="#0091FA" transform="translate(523,74)"/>
<path d="M0 0 C0 0.66 0 1.32 0 2 C-2.39054107 3.1787322 -4.78645215 4.34302997 -7.1875 5.5 C-7.86103516 5.83386719 -8.53457031 6.16773437 -9.22851562 6.51171875 C-12.96303529 8.29700132 -15.75794549 9.46127195 -20 9 C-16.61736896 6.1698087 -12.90881541 4.4967219 -8.875 2.8125 C-8.24207031 2.53986328 -7.60914063 2.26722656 -6.95703125 1.98632812 C-2.2675047 0 -2.2675047 0 0 0 Z " fill="#0FB4FA" transform="translate(306,93)"/>
<path d="M0 0 C1.41791408 0.45445964 2.83428046 0.91374944 4.25 1.375 C5.43335938 1.75785156 5.43335938 1.75785156 6.640625 2.1484375 C8.86627958 2.95173667 10.90931672 3.89711662 13 5 C13 5.66 13 6.32 13 7 C4.6 6.01176471 4.6 6.01176471 1 4 C0.3671875 1.92578125 0.3671875 1.92578125 0 0 Z " fill="#008EFA" transform="translate(539,79)"/>
<path d="M0 0 C-4.00880819 2.67253879 -7.73557579 2.9746616 -12.4375 3.6875 C-13.29666016 3.82994141 -14.15582031 3.97238281 -15.04101562 4.11914062 C-15.87181641 4.24869141 -16.70261719 4.37824219 -17.55859375 4.51171875 C-18.69252563 4.68900513 -18.69252563 4.68900513 -19.84936523 4.86987305 C-22.12414096 5.00751131 -23.83282918 4.66750704 -26 4 C-25.34 3.34 -24.68 2.68 -24 2 C-22.42173749 2 -20.84299665 2.0094791 -19.265625 2.0625 C-15.40485672 1.95599605 -11.65627802 1.14610914 -7.8671875 0.4375 C-5.18894945 0.02883152 -2.70315974 -0.07921347 0 0 Z " fill="#0CB7FE" transform="translate(387,72)"/>
<path d="M0 0 C5.27749285 0.53851968 9.25645564 1.77343836 14 4 C14 4.33 14 4.66 14 5 C10.7 5 7.4 5 4 5 C4 4.01 4 3.02 4 2 C2.68 2 1.36 2 0 2 C0 1.34 0 0.68 0 0 Z " fill="#16BAFE" transform="translate(535,87)"/>
<path d="M0 0 C-3.13117567 2.08745045 -4.06946224 2.27653996 -7.66796875 2.4140625 C-8.56064453 2.45273438 -9.45332031 2.49140625 -10.37304688 2.53125 C-11.30181641 2.5621875 -12.23058594 2.593125 -13.1875 2.625 C-14.59805664 2.68300781 -14.59805664 2.68300781 -16.03710938 2.7421875 C-18.3578771 2.83643187 -20.67863748 2.92204025 -23 3 C-23 2.67 -23 2.34 -23 2 C-21.125 1.6875 -19.25 1.375 -17.375 1.0625 C-16.33085937 0.88847656 -15.28671875 0.71445313 -14.2109375 0.53515625 C-12.62152344 0.27025391 -12.62152344 0.27025391 -11 0 C-9.9378125 -0.1959375 -8.875625 -0.391875 -7.78125 -0.59375 C-4.87658069 -1.01802754 -2.81908242 -0.7462277 0 0 Z " fill="#09B5FE" transform="translate(410,69)"/>
<path d="M0 0 C0 0.66 0 1.32 0 2 C-3.31070838 3.00109515 -6.30084769 3.10356134 -9.75 3.0625 C-10.73484375 3.05347656 -11.7196875 3.04445312 -12.734375 3.03515625 C-13.48203125 3.02355469 -14.2296875 3.01195312 -15 3 C-15 2.34 -15 1.68 -15 1 C-9.9752761 0.37470103 -5.07471573 -0.13012092 0 0 Z " fill="#16B9FA" transform="translate(127,156)"/>
<path d="M0 0 C0 0.66 0 1.32 0 2 C-2.0762657 3.03513247 -4.16131479 4.05266211 -6.25 5.0625 C-7.41015625 5.63097656 -8.5703125 6.19945313 -9.765625 6.78515625 C-12.90644333 7.96485975 -13.99353048 8.30230734 -17 7 C-14.54379149 5.82866942 -12.08525083 4.66278278 -9.625 3.5 C-8.92632812 3.16613281 -8.22765625 2.83226563 -7.5078125 2.48828125 C-2.2265625 0 -2.2265625 0 0 0 Z " fill="#14B7FB" transform="translate(286,102)"/>
<path d="M0 0 C-2.2235486 0.99793249 -4.44921571 1.99026977 -6.6796875 2.97265625 C-8.39902367 3.73391115 -10.10858028 4.51733746 -11.8125 5.3125 C-14.34856825 6.10955002 -15.50052945 5.72835725 -18 5 C-16.41925436 4.18247697 -14.83528777 3.37118003 -13.25 2.5625 C-12.36828125 2.11003906 -11.4865625 1.65757813 -10.578125 1.19140625 C-6.60350194 -0.64535138 -4.23358979 -1.36079672 0 0 Z " fill="#3CC5FE" transform="translate(310,97)"/>
<path d="M0 0 C1.98 0.66 3.96 1.32 6 2 C6 2.66 6 3.32 6 4 C6.763125 4.103125 7.52625 4.20625 8.3125 4.3125 C11.17059424 5.04364039 12.15742885 5.76951913 14 8 C12.33333333 7.66666667 10.66666667 7.33333333 9 7 C8.154375 6.938125 7.30875 6.87625 6.4375 6.8125 C2.83677712 5.61225904 1.83417854 3.1928293 0 0 Z " fill="#13B9FE" transform="translate(566,100)"/>
<path d="M0 0 C0.66 0.33 1.32 0.66 2 1 C-1.93828536 3.31663844 -5.69235185 5.43358249 -10 7 C-10 5.68 -10 4.36 -10 3 C-7.69 3 -5.38 3 -3 3 C-3 2.34 -3 1.68 -3 1 C-2.01 0.67 -1.02 0.34 0 0 Z " fill="#60D0FE" transform="translate(240,127)"/>
<path d="M0 0 C-0.33 0.99 -0.66 1.98 -1 3 C-4.47325181 4.1577506 -7.36067448 4.06866652 -11 4 C-7.32740617 1.55160412 -4.45351799 0 0 0 Z " fill="#24C4FB" transform="translate(206,136)"/>
<path d="M0 0 C-2.97180943 1.89865603 -5.51460083 3.35455571 -9 4 C-9.33 3.34 -9.66 2.68 -10 2 C-8.71211992 1.46987262 -7.41953322 0.9511671 -6.125 0.4375 C-5.40570313 0.14746094 -4.68640625 -0.14257812 -3.9453125 -0.44140625 C-2 -1 -2 -1 0 0 Z " fill="#60D0FE" transform="translate(252,124)"/>
<path d="M0 0 C0 0.66 0 1.32 0 2 C-1.28788008 2.53012738 -2.58046678 3.0488329 -3.875 3.5625 C-4.95394531 3.99755859 -4.95394531 3.99755859 -6.0546875 4.44140625 C-8 5 -8 5 -10 4 C-3.56521739 0 -3.56521739 0 0 0 Z " fill="#02ACF8" transform="translate(336,81)"/>
<path d="M0 0 C1.31571603 0.2547514 2.62760376 0.52934141 3.9375 0.8125 C4.66839844 0.96332031 5.39929688 1.11414063 6.15234375 1.26953125 C6.76207031 1.51058594 7.37179687 1.75164062 8 2 C8.33 2.99 8.66 3.98 9 5 C7.68428397 4.7452486 6.37239624 4.47065859 5.0625 4.1875 C4.33160156 4.03667969 3.60070312 3.88585937 2.84765625 3.73046875 C2.23792969 3.48941406 1.62820313 3.24835938 1 3 C0.67 2.01 0.34 1.02 0 0 Z " fill="#2FC1FE" transform="translate(499,78)"/>
</svg>
